<?xml version="1.0" encoding="UTF-8" standalone="no"?>
<svg
   version="1.0"
   width="961.000000pt"
   height="960.000000pt"
   viewBox="0 0 961.000000 960.000000"
   preserveAspectRatio="xMidYMid meet"
   id="svg6"
   sodipodi:docname="email_hover_fill.svg"
   inkscape:version="1.1 (c68e22c387, 2021-05-23)"
   xmlns:inkscape="http://www.inkscape.org/namespaces/inkscape"
   xmlns:sodipodi="http://sodipodi.sourceforge.net/DTD/sodipodi-0.dtd"
   xmlns="http://www.w3.org/2000/svg"
   xmlns:svg="http://www.w3.org/2000/svg">
  <defs
     id="defs10" />
  <sodipodi:namedview
     id="namedview8"
     pagecolor="#505050"
     bordercolor="#eeeeee"
     borderopacity="1"
     inkscape:pageshadow="0"
     inkscape:pageopacity="0"
     inkscape:pagecheckerboard="0"
     inkscape:document-units="pt"
     showgrid="false"
     inkscape:zoom="0.325"
     inkscape:cx="544.61538"
     inkscape:cy="609.23077"
     inkscape:window-width="1271"
     inkscape:window-height="1040"
     inkscape:window-x="550"
     inkscape:window-y="22"
     inkscape:window-maximized="0"
     inkscape:current-layer="svg6" />
  <g
     transform="translate(0.000000,960.000000) scale(0.100000,-0.100000)"
     fill="#000000"
     stroke="none"
     id="g4"
     style="fill:#0048c6;fill-opacity:1">
    <path
       d="M4420 9579 c-837 -71 -1606 -338 -2290 -797 -980 -657 -1686 -1657 -1975 -2797 -112 -444 -151 -792 -142 -1289 5 -312 17 -449 62 -718 200 -1185 862 -2271 1830 -3004 1063 -804 2412 -1128 3735 -898 867 151 1658 531 2325 1115 1356 1188 1927 3030 1485 4789 -372 1483 -1452 2714 -2875 3278 -448 178 -894 281 -1390 322 -139 11 -626 11 -765 -1z m2685 -3036 c-2121 -2101 -2039 -2021 -2107 -2053 -133 -62 -271 -60 -408 7 -72 35 -116 78 -1295 1250 -671 668 -1221 1218 -1223 1224 -2 5 1032 9 2735 9 l2738 -1 -440 -436z m-4172 -2261 c-285 -282 -688 -680 -895 -884 l-378 -370 0 1772 0 1772 896 -889 895 -888 -518 -513z m5017 517 c0 -992 -4 -1769 -9 -1767 -19 7 -1781 1753 -1779 1763 3 11 1775 1775 1783 1775 3 0 5 -797 5 -1771z m-3750 -731 c312 -218 720 -250 1062 -82 118 58 179 104 335 257 l151 149 895 -884 896 -883 -1364 -3 c-750 -1 -1981 -1 -2736 0 l-1373 3 894 883 894 882 140 -138 c78 -76 170 -159 206 -184z"
       id="path2"
       style="fill:#0048c6;fill-opacity:1" />
  </g>
  <path
     style="fill:#ffffff;fill-opacity:1;stroke:none;stroke-width:46.9769"
     d="M 625.20149,684.81132 C 608.12373,680.01806 606.2321,678.36627 519.99545,592.94412 352.77315,427.30123 277.93217,351.95688 279.8598,351.19336 c 1.04228,-0.41284 164.42083,-0.76088 363.06344,-0.77342 l 361.16836,-0.0228 -57.11244,56.684 C 815.66081,537.41432 694.30001,657.06432 682.34907,667.98083 c -10.9673,10.018 -13.91468,12.10991 -20.66928,14.67018 -9.83655,3.72846 -27.22274,4.7581 -36.4783,2.16031 z"
     id="path1503"
     transform="scale(0.75)" />
  <path
     style="fill:#ffffff;fill-opacity:1;stroke:none;stroke-width:46.9769"
     d="M 295.54614,929.07054 277.78959,928.4856 385.83824,821.8048 C 445.265,763.13036 498.41671,710.81527 503.95316,705.54905 l 10.06627,-9.57495 13.60329,13.1491 c 7.48179,7.23201 17.68709,16.71274 22.67842,21.0683 45.44222,39.65401 115.84837,43.89268 166.72936,10.03764 5.33777,-3.55162 17.07972,-13.74605 28.79398,-24.99909 10.87937,-10.45101 20.30075,-19.00183 20.93641,-19.00183 0.63566,0 21.73994,20.4381 46.8984,45.41801 25.15845,24.9799 62.87746,62.31954 83.82001,82.97696 20.94255,20.65741 53.15063,52.47722 71.57351,70.71067 l 33.49619,33.15174 -19.89798,0.67702 c -24.11516,0.82051 -661.99695,0.73503 -687.10488,-0.0921 z"
     id="path1542"
     transform="scale(0.75)" />
  <path
     style="fill:#ffffff;fill-opacity:1;stroke:none;stroke-width:46.9769"
     d="M 987.64613,805.25504 C 949.42379,767.52757 896.6114,715.06611 870.28527,688.67403 l -47.86569,-47.98559 118.03244,-117.73093 118.03248,-117.73093 0.2744,232.62146 c 0.1539,130.40201 -0.1412,233.3643 -0.6716,234.31194 -0.7446,1.33068 -15.7375,-12.90956 -70.44117,-66.90494 z"
     id="path1581"
     transform="scale(0.75)" />
  <path
     style="fill:#ffffff;fill-opacity:1;stroke:none;stroke-width:46.9769"
     d="M 221.37882,639.72055 V 404.43672 l 118.57636,117.75936 c 65.21701,64.76766 118.57637,118.10969 118.57637,118.53786 0,0.87363 -206.47126,205.12367 -228.72185,226.26128 l -8.43088,8.00917 z"
     id="path1620"
     transform="scale(0.75)" />
</svg>
