<?xml version="1.0" standalone="no"?>
<!DOCTYPE svg PUBLIC "-//W3C//DTD SVG 20010904//EN"
 "http://www.w3.org/TR/2001/REC-SVG-20010904/DTD/svg10.dtd">
<svg version="1.0" xmlns="http://www.w3.org/2000/svg"
 width="960.000000pt" height="961.000000pt" viewBox="0 0 960.000000 961.000000"
 preserveAspectRatio="xMidYMid meet">

<g transform="translate(0.000000,961.000000) scale(0.100000,-0.100000)"
fill="#000000" stroke="none">
<path d="M4548 9589 c-518 -26 -1045 -140 -1528 -331 -154 -61 -468 -213 -615
-298 -226 -130 -479 -308 -700 -491 -128 -105 -466 -444 -574 -574 -557 -671
-908 -1426 -1055 -2265 -94 -536 -92 -1146 5 -1690 227 -1274 977 -2413 2064
-3134 379 -251 701 -409 1130 -551 519 -173 966 -245 1525 -245 754 0 1417
150 2088 471 973 466 1758 1251 2233 2234 394 817 547 1729 443 2645 -108 961
-516 1878 -1160 2610 -390 444 -847 802 -1373 1079 -627 330 -1280 506 -2001
541 -225 11 -253 11 -482 -1z m-1465 -1848 c105 -27 169 -57 235 -108 147
-114 232 -291 234 -484 2 -325 -258 -570 -622 -586 -207 -10 -373 45 -502 166
-121 113 -176 229 -185 392 -18 306 155 539 458 619 103 26 279 27 382 1z
m3462 -1596 c281 -45 493 -150 676 -334 222 -222 337 -484 396 -896 13 -93 17
-280 20 -1207 l4 -1098 -580 0 -581 0 0 953 c0 1156 -4 1208 -99 1402 -104
209 -290 300 -559 274 -199 -20 -387 -154 -492 -351 -59 -110 -60 -130 -60
-1260 l0 -1018 -579 0 -579 0 2 1740 1 1740 575 -2 575 -3 3 -243 2 -243 62
83 c187 255 438 412 738 463 105 18 365 18 475 0z m-3067 -1797 l2 -1738 -580
0 -580 0 0 1740 0 1740 578 -2 577 -3 3 -1737z"/>
</g>
</svg>
