<?xml version="1.0" standalone="no"?>
<!DOCTYPE svg PUBLIC "-//W3C//DTD SVG 20010904//EN"
 "http://www.w3.org/TR/2001/REC-SVG-20010904/DTD/svg10.dtd">
<svg version="1.0" xmlns="http://www.w3.org/2000/svg"
 width="961.000000pt" height="961.000000pt" viewBox="0 0 961.000000 961.000000"
 preserveAspectRatio="xMidYMid meet">

<g transform="translate(0.000000,961.000000) scale(0.100000,-0.100000)"
fill="#000000" stroke="none">
<path d="M4640 9593 c-672 -22 -1316 -182 -1925 -477 -479 -233 -875 -511
-1254 -881 -415 -405 -735 -848 -976 -1349 -243 -505 -381 -982 -452 -1566
-26 -208 -26 -832 0 -1040 56 -463 145 -818 310 -1245 218 -564 584 -1125
1031 -1584 578 -591 1287 -1019 2076 -1252 443 -131 866 -190 1350 -190 619 0
1150 97 1730 318 166 63 493 219 655 313 1125 648 1950 1734 2265 2980 299
1185 137 2443 -450 3496 -461 826 -1132 1485 -1960 1924 -527 280 -1085 453
-1685 525 -128 15 -512 36 -590 33 -22 -1 -78 -3 -125 -5z m3020 -4761 l-410
-2 0 -1225 0 -1225 -925 0 -925 0 0 815 0 815 -600 0 -600 0 0 -815 0 -815
-925 0 -925 0 0 1225 0 1225 -407 0 -408 0 1635 1635 1635 1635 1633 -1632
1632 -1633 -410 -3z"/>
</g>
</svg>
