<?xml version="1.0" standalone="no"?>
<!DOCTYPE svg PUBLIC "-//W3C//DTD SVG 20010904//EN"
 "http://www.w3.org/TR/2001/REC-SVG-20010904/DTD/svg10.dtd">
<svg version="1.0" xmlns="http://www.w3.org/2000/svg"
 width="960.000000pt" height="960.000000pt" viewBox="0 0 960.000000 960.000000"
 preserveAspectRatio="xMidYMid meet">

<g transform="translate(0.000000,960.000000) scale(0.100000,-0.100000)"
fill="#000000" stroke="none">
<path d="M4420 9579 c-760 -64 -1437 -280 -2091 -667 -504 -298 -998 -744
-1361 -1227 -844 -1123 -1153 -2563 -847 -3945 270 -1220 1028 -2301 2089
-2981 449 -288 999 -519 1508 -633 967 -217 1974 -141 2867 217 1113 446 2020
1291 2536 2362 346 719 507 1511 469 2302 -34 699 -189 1305 -490 1918 -241
490 -515 871 -909 1266 -409 408 -789 679 -1306 930 -525 255 -1062 402 -1655
454 -177 16 -645 18 -810 4z m-1242 -1833 c71 -37 133 -130 278 -415 100 -198
188 -358 242 -444 22 -34 54 -89 71 -122 17 -33 44 -78 60 -100 138 -192 181
-285 167 -360 -13 -66 -180 -257 -316 -360 -170 -129 -348 -287 -386 -342 -68
-98 -70 -110 -40 -203 30 -93 50 -136 113 -234 26 -39 78 -125 116 -191 281
-482 613 -861 1047 -1197 146 -112 317 -222 701 -449 65 -39 218 -99 252 -99
25 0 94 37 147 78 41 32 168 181 330 384 84 106 243 253 307 285 52 25 56 25
115 13 47 -10 87 -30 167 -83 58 -38 117 -78 131 -88 14 -10 51 -33 83 -49 31
-17 83 -47 115 -67 68 -44 165 -98 445 -244 315 -165 416 -236 433 -305 31
-124 -72 -590 -160 -720 -150 -222 -621 -495 -981 -569 -188 -38 -415 -39
-577 -1 -122 28 -384 108 -488 148 -58 22 -179 66 -270 98 -196 69 -194 68
-340 132 -336 149 -700 386 -1090 711 -255 214 -721 684 -951 962 -363 439
-660 953 -787 1365 -11 36 -46 130 -77 210 -59 151 -143 431 -176 585 -42 202
-18 494 62 730 103 306 347 679 513 787 82 53 320 126 526 161 62 11 192 6
218 -7z"/>
</g>
</svg>
